%TF.GenerationSoftware,KiCad,Pcbnew,8.0.6*%
%TF.CreationDate,2025-10-28T14:06:13-04:00*%
%TF.ProjectId,KiCAD,4b694341-442e-46b6-9963-61645f706362,rev?*%
%TF.SameCoordinates,Original*%
%TF.FileFunction,Copper,L2,Bot*%
%TF.FilePolarity,Positive*%
%FSLAX46Y46*%
G04 Gerber Fmt 4.6, Leading zero omitted, Abs format (unit mm)*
G04 Created by KiCad (PCBNEW 8.0.6) date 2025-10-28 14:06:13*
%MOMM*%
%LPD*%
G01*
G04 APERTURE LIST*
G04 Aperture macros list*
%AMRoundRect*
0 Rectangle with rounded corners*
0 $1 Rounding radius*
0 $2 $3 $4 $5 $6 $7 $8 $9 X,Y pos of 4 corners*
0 Add a 4 corners polygon primitive as box body*
4,1,4,$2,$3,$4,$5,$6,$7,$8,$9,$2,$3,0*
0 Add four circle primitives for the rounded corners*
1,1,$1+$1,$2,$3*
1,1,$1+$1,$4,$5*
1,1,$1+$1,$6,$7*
1,1,$1+$1,$8,$9*
0 Add four rect primitives between the rounded corners*
20,1,$1+$1,$2,$3,$4,$5,0*
20,1,$1+$1,$4,$5,$6,$7,0*
20,1,$1+$1,$6,$7,$8,$9,0*
20,1,$1+$1,$8,$9,$2,$3,0*%
G04 Aperture macros list end*
%ADD10C,0.300000*%
%TA.AperFunction,NonConductor*%
%ADD11C,0.300000*%
%TD*%
%TA.AperFunction,NonConductor*%
%ADD12C,0.200000*%
%TD*%
%TA.AperFunction,ComponentPad*%
%ADD13O,1.700000X1.700000*%
%TD*%
%TA.AperFunction,ComponentPad*%
%ADD14R,1.700000X1.700000*%
%TD*%
%TA.AperFunction,ComponentPad*%
%ADD15O,1.600000X1.600000*%
%TD*%
%TA.AperFunction,ComponentPad*%
%ADD16R,1.600000X1.600000*%
%TD*%
%TA.AperFunction,SMDPad,CuDef*%
%ADD17RoundRect,0.250000X-0.475000X0.337500X-0.475000X-0.337500X0.475000X-0.337500X0.475000X0.337500X0*%
%TD*%
%TA.AperFunction,Conductor*%
%ADD18C,0.400000*%
%TD*%
%TA.AperFunction,Conductor*%
%ADD19C,1.000000*%
%TD*%
G04 APERTURE END LIST*
D10*
D11*
X169696430Y-128031185D02*
X169767858Y-127959757D01*
X169767858Y-127959757D02*
X169910716Y-127888328D01*
X169910716Y-127888328D02*
X170267858Y-127888328D01*
X170267858Y-127888328D02*
X170410716Y-127959757D01*
X170410716Y-127959757D02*
X170482144Y-128031185D01*
X170482144Y-128031185D02*
X170553573Y-128174042D01*
X170553573Y-128174042D02*
X170553573Y-128316900D01*
X170553573Y-128316900D02*
X170482144Y-128531185D01*
X170482144Y-128531185D02*
X169625001Y-129388328D01*
X169625001Y-129388328D02*
X170553573Y-129388328D01*
X171125001Y-128031185D02*
X171196429Y-127959757D01*
X171196429Y-127959757D02*
X171339287Y-127888328D01*
X171339287Y-127888328D02*
X171696429Y-127888328D01*
X171696429Y-127888328D02*
X171839287Y-127959757D01*
X171839287Y-127959757D02*
X171910715Y-128031185D01*
X171910715Y-128031185D02*
X171982144Y-128174042D01*
X171982144Y-128174042D02*
X171982144Y-128316900D01*
X171982144Y-128316900D02*
X171910715Y-128531185D01*
X171910715Y-128531185D02*
X171053572Y-129388328D01*
X171053572Y-129388328D02*
X171982144Y-129388328D01*
X172625000Y-129245471D02*
X172696429Y-129316900D01*
X172696429Y-129316900D02*
X172625000Y-129388328D01*
X172625000Y-129388328D02*
X172553572Y-129316900D01*
X172553572Y-129316900D02*
X172625000Y-129245471D01*
X172625000Y-129245471D02*
X172625000Y-129388328D01*
X173410715Y-129388328D02*
X173696429Y-129388328D01*
X173696429Y-129388328D02*
X173839286Y-129316900D01*
X173839286Y-129316900D02*
X173910715Y-129245471D01*
X173910715Y-129245471D02*
X174053572Y-129031185D01*
X174053572Y-129031185D02*
X174125001Y-128745471D01*
X174125001Y-128745471D02*
X174125001Y-128174042D01*
X174125001Y-128174042D02*
X174053572Y-128031185D01*
X174053572Y-128031185D02*
X173982144Y-127959757D01*
X173982144Y-127959757D02*
X173839286Y-127888328D01*
X173839286Y-127888328D02*
X173553572Y-127888328D01*
X173553572Y-127888328D02*
X173410715Y-127959757D01*
X173410715Y-127959757D02*
X173339286Y-128031185D01*
X173339286Y-128031185D02*
X173267858Y-128174042D01*
X173267858Y-128174042D02*
X173267858Y-128531185D01*
X173267858Y-128531185D02*
X173339286Y-128674042D01*
X173339286Y-128674042D02*
X173410715Y-128745471D01*
X173410715Y-128745471D02*
X173553572Y-128816900D01*
X173553572Y-128816900D02*
X173839286Y-128816900D01*
X173839286Y-128816900D02*
X173982144Y-128745471D01*
X173982144Y-128745471D02*
X174053572Y-128674042D01*
X174053572Y-128674042D02*
X174125001Y-128531185D01*
X174625000Y-127888328D02*
X175625000Y-127888328D01*
X175625000Y-127888328D02*
X174982143Y-129388328D01*
X176482143Y-127888328D02*
X176625000Y-127888328D01*
X176625000Y-127888328D02*
X176767857Y-127959757D01*
X176767857Y-127959757D02*
X176839286Y-128031185D01*
X176839286Y-128031185D02*
X176910714Y-128174042D01*
X176910714Y-128174042D02*
X176982143Y-128459757D01*
X176982143Y-128459757D02*
X176982143Y-128816900D01*
X176982143Y-128816900D02*
X176910714Y-129102614D01*
X176910714Y-129102614D02*
X176839286Y-129245471D01*
X176839286Y-129245471D02*
X176767857Y-129316900D01*
X176767857Y-129316900D02*
X176625000Y-129388328D01*
X176625000Y-129388328D02*
X176482143Y-129388328D01*
X176482143Y-129388328D02*
X176339286Y-129316900D01*
X176339286Y-129316900D02*
X176267857Y-129245471D01*
X176267857Y-129245471D02*
X176196428Y-129102614D01*
X176196428Y-129102614D02*
X176125000Y-128816900D01*
X176125000Y-128816900D02*
X176125000Y-128459757D01*
X176125000Y-128459757D02*
X176196428Y-128174042D01*
X176196428Y-128174042D02*
X176267857Y-128031185D01*
X176267857Y-128031185D02*
X176339286Y-127959757D01*
X176339286Y-127959757D02*
X176482143Y-127888328D01*
X177910714Y-127888328D02*
X178053571Y-127888328D01*
X178053571Y-127888328D02*
X178196428Y-127959757D01*
X178196428Y-127959757D02*
X178267857Y-128031185D01*
X178267857Y-128031185D02*
X178339285Y-128174042D01*
X178339285Y-128174042D02*
X178410714Y-128459757D01*
X178410714Y-128459757D02*
X178410714Y-128816900D01*
X178410714Y-128816900D02*
X178339285Y-129102614D01*
X178339285Y-129102614D02*
X178267857Y-129245471D01*
X178267857Y-129245471D02*
X178196428Y-129316900D01*
X178196428Y-129316900D02*
X178053571Y-129388328D01*
X178053571Y-129388328D02*
X177910714Y-129388328D01*
X177910714Y-129388328D02*
X177767857Y-129316900D01*
X177767857Y-129316900D02*
X177696428Y-129245471D01*
X177696428Y-129245471D02*
X177624999Y-129102614D01*
X177624999Y-129102614D02*
X177553571Y-128816900D01*
X177553571Y-128816900D02*
X177553571Y-128459757D01*
X177553571Y-128459757D02*
X177624999Y-128174042D01*
X177624999Y-128174042D02*
X177696428Y-128031185D01*
X177696428Y-128031185D02*
X177767857Y-127959757D01*
X177767857Y-127959757D02*
X177910714Y-127888328D01*
X180196427Y-129388328D02*
X180196427Y-128388328D01*
X180196427Y-128531185D02*
X180267856Y-128459757D01*
X180267856Y-128459757D02*
X180410713Y-128388328D01*
X180410713Y-128388328D02*
X180624999Y-128388328D01*
X180624999Y-128388328D02*
X180767856Y-128459757D01*
X180767856Y-128459757D02*
X180839285Y-128602614D01*
X180839285Y-128602614D02*
X180839285Y-129388328D01*
X180839285Y-128602614D02*
X180910713Y-128459757D01*
X180910713Y-128459757D02*
X181053570Y-128388328D01*
X181053570Y-128388328D02*
X181267856Y-128388328D01*
X181267856Y-128388328D02*
X181410713Y-128459757D01*
X181410713Y-128459757D02*
X181482142Y-128602614D01*
X181482142Y-128602614D02*
X181482142Y-129388328D01*
X182196427Y-129388328D02*
X182196427Y-128388328D01*
X182196427Y-128531185D02*
X182267856Y-128459757D01*
X182267856Y-128459757D02*
X182410713Y-128388328D01*
X182410713Y-128388328D02*
X182624999Y-128388328D01*
X182624999Y-128388328D02*
X182767856Y-128459757D01*
X182767856Y-128459757D02*
X182839285Y-128602614D01*
X182839285Y-128602614D02*
X182839285Y-129388328D01*
X182839285Y-128602614D02*
X182910713Y-128459757D01*
X182910713Y-128459757D02*
X183053570Y-128388328D01*
X183053570Y-128388328D02*
X183267856Y-128388328D01*
X183267856Y-128388328D02*
X183410713Y-128459757D01*
X183410713Y-128459757D02*
X183482142Y-128602614D01*
X183482142Y-128602614D02*
X183482142Y-129388328D01*
D12*
X188110000Y-131010000D02*
X188110000Y-131096420D01*
X165140000Y-131010000D02*
X165140000Y-131096420D01*
X188110000Y-130510000D02*
X165140000Y-130510000D01*
X188110000Y-130510000D02*
X165140000Y-130510000D01*
X188110000Y-130510000D02*
X186983496Y-131096421D01*
X188110000Y-130510000D02*
X186983496Y-129923579D01*
X165140000Y-130510000D02*
X166266504Y-129923579D01*
X165140000Y-130510000D02*
X166266504Y-131096421D01*
D10*
D11*
X189308328Y-117089998D02*
X189308328Y-116161426D01*
X189308328Y-116161426D02*
X189879757Y-116661426D01*
X189879757Y-116661426D02*
X189879757Y-116447141D01*
X189879757Y-116447141D02*
X189951185Y-116304284D01*
X189951185Y-116304284D02*
X190022614Y-116232855D01*
X190022614Y-116232855D02*
X190165471Y-116161426D01*
X190165471Y-116161426D02*
X190522614Y-116161426D01*
X190522614Y-116161426D02*
X190665471Y-116232855D01*
X190665471Y-116232855D02*
X190736900Y-116304284D01*
X190736900Y-116304284D02*
X190808328Y-116447141D01*
X190808328Y-116447141D02*
X190808328Y-116875712D01*
X190808328Y-116875712D02*
X190736900Y-117018569D01*
X190736900Y-117018569D02*
X190665471Y-117089998D01*
X189451185Y-115589998D02*
X189379757Y-115518570D01*
X189379757Y-115518570D02*
X189308328Y-115375713D01*
X189308328Y-115375713D02*
X189308328Y-115018570D01*
X189308328Y-115018570D02*
X189379757Y-114875713D01*
X189379757Y-114875713D02*
X189451185Y-114804284D01*
X189451185Y-114804284D02*
X189594042Y-114732855D01*
X189594042Y-114732855D02*
X189736900Y-114732855D01*
X189736900Y-114732855D02*
X189951185Y-114804284D01*
X189951185Y-114804284D02*
X190808328Y-115661427D01*
X190808328Y-115661427D02*
X190808328Y-114732855D01*
X190665471Y-114089999D02*
X190736900Y-114018570D01*
X190736900Y-114018570D02*
X190808328Y-114089999D01*
X190808328Y-114089999D02*
X190736900Y-114161427D01*
X190736900Y-114161427D02*
X190665471Y-114089999D01*
X190665471Y-114089999D02*
X190808328Y-114089999D01*
X190808328Y-113304284D02*
X190808328Y-113018570D01*
X190808328Y-113018570D02*
X190736900Y-112875713D01*
X190736900Y-112875713D02*
X190665471Y-112804284D01*
X190665471Y-112804284D02*
X190451185Y-112661427D01*
X190451185Y-112661427D02*
X190165471Y-112589998D01*
X190165471Y-112589998D02*
X189594042Y-112589998D01*
X189594042Y-112589998D02*
X189451185Y-112661427D01*
X189451185Y-112661427D02*
X189379757Y-112732856D01*
X189379757Y-112732856D02*
X189308328Y-112875713D01*
X189308328Y-112875713D02*
X189308328Y-113161427D01*
X189308328Y-113161427D02*
X189379757Y-113304284D01*
X189379757Y-113304284D02*
X189451185Y-113375713D01*
X189451185Y-113375713D02*
X189594042Y-113447141D01*
X189594042Y-113447141D02*
X189951185Y-113447141D01*
X189951185Y-113447141D02*
X190094042Y-113375713D01*
X190094042Y-113375713D02*
X190165471Y-113304284D01*
X190165471Y-113304284D02*
X190236900Y-113161427D01*
X190236900Y-113161427D02*
X190236900Y-112875713D01*
X190236900Y-112875713D02*
X190165471Y-112732856D01*
X190165471Y-112732856D02*
X190094042Y-112661427D01*
X190094042Y-112661427D02*
X189951185Y-112589998D01*
X189308328Y-111304285D02*
X189308328Y-111589999D01*
X189308328Y-111589999D02*
X189379757Y-111732856D01*
X189379757Y-111732856D02*
X189451185Y-111804285D01*
X189451185Y-111804285D02*
X189665471Y-111947142D01*
X189665471Y-111947142D02*
X189951185Y-112018570D01*
X189951185Y-112018570D02*
X190522614Y-112018570D01*
X190522614Y-112018570D02*
X190665471Y-111947142D01*
X190665471Y-111947142D02*
X190736900Y-111875713D01*
X190736900Y-111875713D02*
X190808328Y-111732856D01*
X190808328Y-111732856D02*
X190808328Y-111447142D01*
X190808328Y-111447142D02*
X190736900Y-111304285D01*
X190736900Y-111304285D02*
X190665471Y-111232856D01*
X190665471Y-111232856D02*
X190522614Y-111161427D01*
X190522614Y-111161427D02*
X190165471Y-111161427D01*
X190165471Y-111161427D02*
X190022614Y-111232856D01*
X190022614Y-111232856D02*
X189951185Y-111304285D01*
X189951185Y-111304285D02*
X189879757Y-111447142D01*
X189879757Y-111447142D02*
X189879757Y-111732856D01*
X189879757Y-111732856D02*
X189951185Y-111875713D01*
X189951185Y-111875713D02*
X190022614Y-111947142D01*
X190022614Y-111947142D02*
X190165471Y-112018570D01*
X189308328Y-110232856D02*
X189308328Y-110089999D01*
X189308328Y-110089999D02*
X189379757Y-109947142D01*
X189379757Y-109947142D02*
X189451185Y-109875714D01*
X189451185Y-109875714D02*
X189594042Y-109804285D01*
X189594042Y-109804285D02*
X189879757Y-109732856D01*
X189879757Y-109732856D02*
X190236900Y-109732856D01*
X190236900Y-109732856D02*
X190522614Y-109804285D01*
X190522614Y-109804285D02*
X190665471Y-109875714D01*
X190665471Y-109875714D02*
X190736900Y-109947142D01*
X190736900Y-109947142D02*
X190808328Y-110089999D01*
X190808328Y-110089999D02*
X190808328Y-110232856D01*
X190808328Y-110232856D02*
X190736900Y-110375714D01*
X190736900Y-110375714D02*
X190665471Y-110447142D01*
X190665471Y-110447142D02*
X190522614Y-110518571D01*
X190522614Y-110518571D02*
X190236900Y-110589999D01*
X190236900Y-110589999D02*
X189879757Y-110589999D01*
X189879757Y-110589999D02*
X189594042Y-110518571D01*
X189594042Y-110518571D02*
X189451185Y-110447142D01*
X189451185Y-110447142D02*
X189379757Y-110375714D01*
X189379757Y-110375714D02*
X189308328Y-110232856D01*
X189308328Y-108804285D02*
X189308328Y-108661428D01*
X189308328Y-108661428D02*
X189379757Y-108518571D01*
X189379757Y-108518571D02*
X189451185Y-108447143D01*
X189451185Y-108447143D02*
X189594042Y-108375714D01*
X189594042Y-108375714D02*
X189879757Y-108304285D01*
X189879757Y-108304285D02*
X190236900Y-108304285D01*
X190236900Y-108304285D02*
X190522614Y-108375714D01*
X190522614Y-108375714D02*
X190665471Y-108447143D01*
X190665471Y-108447143D02*
X190736900Y-108518571D01*
X190736900Y-108518571D02*
X190808328Y-108661428D01*
X190808328Y-108661428D02*
X190808328Y-108804285D01*
X190808328Y-108804285D02*
X190736900Y-108947143D01*
X190736900Y-108947143D02*
X190665471Y-109018571D01*
X190665471Y-109018571D02*
X190522614Y-109090000D01*
X190522614Y-109090000D02*
X190236900Y-109161428D01*
X190236900Y-109161428D02*
X189879757Y-109161428D01*
X189879757Y-109161428D02*
X189594042Y-109090000D01*
X189594042Y-109090000D02*
X189451185Y-109018571D01*
X189451185Y-109018571D02*
X189379757Y-108947143D01*
X189379757Y-108947143D02*
X189308328Y-108804285D01*
X190808328Y-106518572D02*
X189808328Y-106518572D01*
X189951185Y-106518572D02*
X189879757Y-106447143D01*
X189879757Y-106447143D02*
X189808328Y-106304286D01*
X189808328Y-106304286D02*
X189808328Y-106090000D01*
X189808328Y-106090000D02*
X189879757Y-105947143D01*
X189879757Y-105947143D02*
X190022614Y-105875715D01*
X190022614Y-105875715D02*
X190808328Y-105875715D01*
X190022614Y-105875715D02*
X189879757Y-105804286D01*
X189879757Y-105804286D02*
X189808328Y-105661429D01*
X189808328Y-105661429D02*
X189808328Y-105447143D01*
X189808328Y-105447143D02*
X189879757Y-105304286D01*
X189879757Y-105304286D02*
X190022614Y-105232857D01*
X190022614Y-105232857D02*
X190808328Y-105232857D01*
X190808328Y-104518572D02*
X189808328Y-104518572D01*
X189951185Y-104518572D02*
X189879757Y-104447143D01*
X189879757Y-104447143D02*
X189808328Y-104304286D01*
X189808328Y-104304286D02*
X189808328Y-104090000D01*
X189808328Y-104090000D02*
X189879757Y-103947143D01*
X189879757Y-103947143D02*
X190022614Y-103875715D01*
X190022614Y-103875715D02*
X190808328Y-103875715D01*
X190022614Y-103875715D02*
X189879757Y-103804286D01*
X189879757Y-103804286D02*
X189808328Y-103661429D01*
X189808328Y-103661429D02*
X189808328Y-103447143D01*
X189808328Y-103447143D02*
X189879757Y-103304286D01*
X189879757Y-103304286D02*
X190022614Y-103232857D01*
X190022614Y-103232857D02*
X190808328Y-103232857D01*
D12*
X191430000Y-126570000D02*
X191343580Y-126570000D01*
X191430000Y-93610000D02*
X191343580Y-93610000D01*
X191930000Y-126570000D02*
X191930000Y-93610000D01*
X191930000Y-126570000D02*
X191930000Y-93610000D01*
X191930000Y-126570000D02*
X191343579Y-125443496D01*
X191930000Y-126570000D02*
X192516421Y-125443496D01*
X191930000Y-93610000D02*
X192516421Y-94736504D01*
X191930000Y-93610000D02*
X191343579Y-94736504D01*
D13*
%TO.P,J4,2,Pin_2*%
%TO.N,GND*%
X175185000Y-96600000D03*
D14*
%TO.P,J4,1,Pin_1*%
%TO.N,Net-(J4-Pin_1)*%
X177725000Y-96600000D03*
%TD*%
%TO.P,J1,1,Pin_1*%
%TO.N,/EN1\u002C2*%
X167150000Y-102840000D03*
D13*
%TO.P,J1,2,Pin_2*%
%TO.N,/1A*%
X167150000Y-105380000D03*
%TO.P,J1,3,Pin_3*%
%TO.N,/1Y*%
X167150000Y-107920000D03*
%TO.P,J1,4,Pin_4*%
%TO.N,/2Y*%
X167150000Y-110460000D03*
%TO.P,J1,5,Pin_5*%
%TO.N,/2A*%
X167150000Y-113000000D03*
%TD*%
D15*
%TO.P,U1,16,VCC1*%
%TO.N,Net-(J4-Pin_1)*%
X179820000Y-101570000D03*
%TO.P,U1,15,4A*%
%TO.N,/4A*%
X179820000Y-104110000D03*
%TO.P,U1,14,4Y*%
%TO.N,/4Y*%
X179820000Y-106650000D03*
%TO.P,U1,13,GND*%
%TO.N,GND*%
X179820000Y-109190000D03*
%TO.P,U1,12,GND*%
X179820000Y-111730000D03*
%TO.P,U1,11,3Y*%
%TO.N,/3Y*%
X179820000Y-114270000D03*
%TO.P,U1,10,3A*%
%TO.N,/3A*%
X179820000Y-116810000D03*
%TO.P,U1,9,EN3\u002C4*%
%TO.N,/EN3\u002C4*%
X179820000Y-119350000D03*
%TO.P,U1,8,VCC2*%
%TO.N,Net-(J3-Pin_1)*%
X172200000Y-119350000D03*
%TO.P,U1,7,2A*%
%TO.N,/2A*%
X172200000Y-116810000D03*
%TO.P,U1,6,2Y*%
%TO.N,/2Y*%
X172200000Y-114270000D03*
%TO.P,U1,5,GND*%
%TO.N,GND*%
X172200000Y-111730000D03*
%TO.P,U1,4,GND*%
X172200000Y-109190000D03*
%TO.P,U1,3,1Y*%
%TO.N,/1Y*%
X172200000Y-106650000D03*
%TO.P,U1,2,1A*%
%TO.N,/1A*%
X172200000Y-104110000D03*
D16*
%TO.P,U1,1,EN1\u002C2*%
%TO.N,/EN1\u002C2*%
X172200000Y-101570000D03*
%TD*%
D14*
%TO.P,J2,1,Pin_1*%
%TO.N,/4A*%
X184820000Y-108035000D03*
D13*
%TO.P,J2,2,Pin_2*%
%TO.N,/4Y*%
X184820000Y-110575000D03*
%TO.P,J2,3,Pin_3*%
%TO.N,/3Y*%
X184820000Y-113115000D03*
%TO.P,J2,4,Pin_4*%
%TO.N,/3A*%
X184820000Y-115655000D03*
%TO.P,J2,5,Pin_5*%
%TO.N,/EN3\u002C4*%
X184820000Y-118195000D03*
%TD*%
%TO.P,J3,2,Pin_2*%
%TO.N,GND*%
X177335000Y-123860000D03*
D14*
%TO.P,J3,1,Pin_1*%
%TO.N,Net-(J3-Pin_1)*%
X174795000Y-123860000D03*
%TD*%
D17*
%TO.P,C1,2*%
%TO.N,GND*%
X168140000Y-119167500D03*
%TO.P,C1,1*%
%TO.N,Net-(J3-Pin_1)*%
X168140000Y-117092500D03*
%TD*%
%TO.P,C2,1*%
%TO.N,Net-(J4-Pin_1)*%
X184120000Y-101862500D03*
%TO.P,C2,2*%
%TO.N,GND*%
X184120000Y-103937500D03*
%TD*%
D18*
%TO.N,Net-(J3-Pin_1)*%
X168140000Y-117092500D02*
X166030000Y-119202500D01*
X168738834Y-123948834D02*
X174706166Y-123948834D01*
X169030000Y-117092500D02*
X168133834Y-117092500D01*
D19*
X169942500Y-117092500D02*
X172200000Y-119350000D01*
D18*
X166030000Y-119202500D02*
X166030000Y-121240000D01*
D19*
X169030000Y-117092500D02*
X169942500Y-117092500D01*
D18*
X166030000Y-121240000D02*
X168738834Y-123948834D01*
X174706166Y-123948834D02*
X174795000Y-123860000D01*
%TO.N,/EN3\u002C4*%
X180975000Y-118195000D02*
X179820000Y-119350000D01*
X184820000Y-118195000D02*
X180975000Y-118195000D01*
%TO.N,/4A*%
X179820000Y-104110000D02*
X183745000Y-108035000D01*
X183745000Y-108035000D02*
X184820000Y-108035000D01*
D19*
%TO.N,/3Y*%
X180975000Y-113115000D02*
X179820000Y-114270000D01*
X184820000Y-113115000D02*
X180975000Y-113115000D01*
%TO.N,/4Y*%
X179820000Y-106650000D02*
X183745000Y-110575000D01*
X183745000Y-110575000D02*
X184820000Y-110575000D01*
D18*
%TO.N,/3A*%
X184820000Y-115655000D02*
X180975000Y-115655000D01*
X180975000Y-115655000D02*
X179820000Y-116810000D01*
D19*
%TO.N,/2Y*%
X167150000Y-110460000D02*
X168390000Y-110460000D01*
X168390000Y-110460000D02*
X172200000Y-114270000D01*
D18*
%TO.N,/EN1\u002C2*%
X167150000Y-102840000D02*
X170930000Y-102840000D01*
X170930000Y-102840000D02*
X172200000Y-101570000D01*
%TO.N,/2A*%
X167150000Y-113000000D02*
X168390000Y-113000000D01*
X168390000Y-113000000D02*
X172200000Y-116810000D01*
%TO.N,/1A*%
X167150000Y-105380000D02*
X170930000Y-105380000D01*
X170930000Y-105380000D02*
X172200000Y-104110000D01*
D19*
%TO.N,/1Y*%
X167150000Y-107920000D02*
X170930000Y-107920000D01*
X170930000Y-107920000D02*
X172200000Y-106650000D01*
D18*
%TO.N,Net-(J4-Pin_1)*%
X184120000Y-100660000D02*
X180060000Y-96600000D01*
X180060000Y-96600000D02*
X177725000Y-96600000D01*
X184120000Y-101862500D02*
X184120000Y-100660000D01*
X180142500Y-101892500D02*
X179820000Y-101570000D01*
D19*
X184090000Y-101892500D02*
X184120000Y-101862500D01*
X180142500Y-101892500D02*
X184090000Y-101892500D01*
%TD*%
%TA.AperFunction,Conductor*%
%TO.N,GND*%
G36*
X181232201Y-109489683D02*
G01*
X181271071Y-109515991D01*
X182964735Y-111209655D01*
X182964764Y-111209686D01*
X183107214Y-111352136D01*
X183107218Y-111352139D01*
X183271079Y-111461628D01*
X183271092Y-111461635D01*
X183399833Y-111514961D01*
X183442744Y-111532735D01*
X183453164Y-111537051D01*
X183549812Y-111556275D01*
X183598135Y-111565887D01*
X183646458Y-111575500D01*
X183646459Y-111575500D01*
X183646460Y-111575500D01*
X183843540Y-111575500D01*
X183859242Y-111575500D01*
X183926281Y-111595185D01*
X183946923Y-111611819D01*
X183948597Y-111613493D01*
X183948603Y-111613498D01*
X184134158Y-111743425D01*
X184177783Y-111798002D01*
X184184977Y-111867500D01*
X184153454Y-111929855D01*
X184134158Y-111946575D01*
X183948597Y-112076505D01*
X183946922Y-112078181D01*
X183946000Y-112078684D01*
X183944449Y-112079986D01*
X183944187Y-112079674D01*
X183885599Y-112111666D01*
X183859241Y-112114500D01*
X181224433Y-112114500D01*
X181157394Y-112094815D01*
X181111639Y-112042011D01*
X181103610Y-111986176D01*
X181098872Y-111980000D01*
X180135686Y-111980000D01*
X180140080Y-111975606D01*
X180192741Y-111884394D01*
X180220000Y-111782661D01*
X180220000Y-111677339D01*
X180192741Y-111575606D01*
X180140080Y-111484394D01*
X180135686Y-111480000D01*
X181098872Y-111480000D01*
X181098872Y-111479999D01*
X181046269Y-111283682D01*
X181046265Y-111283673D01*
X180950134Y-111077517D01*
X180819657Y-110891179D01*
X180658820Y-110730342D01*
X180472481Y-110599865D01*
X180472479Y-110599864D01*
X180413543Y-110572382D01*
X180361103Y-110526210D01*
X180341951Y-110459017D01*
X180362166Y-110392136D01*
X180413543Y-110347618D01*
X180472479Y-110320135D01*
X180472481Y-110320134D01*
X180658820Y-110189657D01*
X180819657Y-110028820D01*
X180950134Y-109842482D01*
X181046265Y-109636326D01*
X181046270Y-109636315D01*
X181063615Y-109571580D01*
X181099979Y-109511919D01*
X181162825Y-109481389D01*
X181232201Y-109489683D01*
G37*
%TD.AperFunction*%
%TA.AperFunction,Conductor*%
G36*
X180070000Y-111414314D02*
G01*
X180065606Y-111409920D01*
X179974394Y-111357259D01*
X179872661Y-111330000D01*
X179767339Y-111330000D01*
X179665606Y-111357259D01*
X179574394Y-111409920D01*
X179570000Y-111414314D01*
X179570000Y-109505686D01*
X179574394Y-109510080D01*
X179665606Y-109562741D01*
X179767339Y-109590000D01*
X179872661Y-109590000D01*
X179974394Y-109562741D01*
X180065606Y-109510080D01*
X180070000Y-109505686D01*
X180070000Y-111414314D01*
G37*
%TD.AperFunction*%
%TA.AperFunction,Conductor*%
G36*
X187102539Y-94180185D02*
G01*
X187148294Y-94232989D01*
X187159500Y-94284500D01*
X187159500Y-125995500D01*
X187139815Y-126062539D01*
X187087011Y-126108294D01*
X187035500Y-126119500D01*
X165314500Y-126119500D01*
X165247461Y-126099815D01*
X165201706Y-126047011D01*
X165190500Y-125995500D01*
X165190500Y-121653239D01*
X165210185Y-121586200D01*
X165262989Y-121540445D01*
X165332147Y-121530501D01*
X165395703Y-121559526D01*
X165417601Y-121584347D01*
X165455829Y-121641560D01*
X165485887Y-121686545D01*
X168292288Y-124492946D01*
X168407026Y-124569611D01*
X168534501Y-124622412D01*
X168534506Y-124622414D01*
X168534510Y-124622414D01*
X168534511Y-124622415D01*
X168669837Y-124649334D01*
X168669840Y-124649334D01*
X168669841Y-124649334D01*
X173321448Y-124649334D01*
X173388487Y-124669019D01*
X173434242Y-124721823D01*
X173444738Y-124760080D01*
X173450909Y-124817483D01*
X173501202Y-124952328D01*
X173501206Y-124952335D01*
X173587452Y-125067544D01*
X173587455Y-125067547D01*
X173702664Y-125153793D01*
X173702671Y-125153797D01*
X173837517Y-125204091D01*
X173837516Y-125204091D01*
X173844444Y-125204835D01*
X173897127Y-125210500D01*
X175692872Y-125210499D01*
X175752483Y-125204091D01*
X175887331Y-125153796D01*
X176002546Y-125067546D01*
X176088796Y-124952331D01*
X176090654Y-124947351D01*
X176138002Y-124820402D01*
X176179872Y-124764468D01*
X176245337Y-124740050D01*
X176313610Y-124754901D01*
X176341865Y-124776053D01*
X176463917Y-124898105D01*
X176657421Y-125033600D01*
X176871507Y-125133429D01*
X176871516Y-125133433D01*
X177085000Y-125190634D01*
X177085000Y-124293012D01*
X177142007Y-124325925D01*
X177269174Y-124360000D01*
X177400826Y-124360000D01*
X177527993Y-124325925D01*
X177585000Y-124293012D01*
X177585000Y-125190633D01*
X177798483Y-125133433D01*
X177798492Y-125133429D01*
X178012578Y-125033600D01*
X178206082Y-124898105D01*
X178373105Y-124731082D01*
X178508600Y-124537578D01*
X178608429Y-124323492D01*
X178608432Y-124323486D01*
X178665636Y-124110000D01*
X177768012Y-124110000D01*
X177800925Y-124052993D01*
X177835000Y-123925826D01*
X177835000Y-123794174D01*
X177800925Y-123667007D01*
X177768012Y-123610000D01*
X178665636Y-123610000D01*
X178665635Y-123609999D01*
X178608432Y-123396513D01*
X178608429Y-123396507D01*
X178508600Y-123182422D01*
X178508599Y-123182420D01*
X178373113Y-122988926D01*
X178373108Y-122988920D01*
X178206082Y-122821894D01*
X178012578Y-122686399D01*
X177798492Y-122586570D01*
X177798486Y-122586567D01*
X177585000Y-122529364D01*
X177585000Y-123426988D01*
X177527993Y-123394075D01*
X177400826Y-123360000D01*
X177269174Y-123360000D01*
X177142007Y-123394075D01*
X177085000Y-123426988D01*
X177085000Y-122529364D01*
X177084999Y-122529364D01*
X176871513Y-122586567D01*
X176871507Y-122586570D01*
X176657422Y-122686399D01*
X176657420Y-122686400D01*
X176463926Y-122821886D01*
X176341865Y-122943947D01*
X176280542Y-122977431D01*
X176210850Y-122972447D01*
X176154917Y-122930575D01*
X176138002Y-122899598D01*
X176088797Y-122767671D01*
X176088793Y-122767664D01*
X176002547Y-122652455D01*
X176002544Y-122652452D01*
X175887335Y-122566206D01*
X175887328Y-122566202D01*
X175752482Y-122515908D01*
X175752483Y-122515908D01*
X175692883Y-122509501D01*
X175692881Y-122509500D01*
X175692873Y-122509500D01*
X175692864Y-122509500D01*
X173897129Y-122509500D01*
X173897123Y-122509501D01*
X173837516Y-122515908D01*
X173702671Y-122566202D01*
X173702664Y-122566206D01*
X173587455Y-122652452D01*
X173587452Y-122652455D01*
X173501206Y-122767664D01*
X173501202Y-122767671D01*
X173450908Y-122902517D01*
X173444501Y-122962116D01*
X173444500Y-122962135D01*
X173444500Y-123124334D01*
X173424815Y-123191373D01*
X173372011Y-123237128D01*
X173320500Y-123248334D01*
X169080353Y-123248334D01*
X169013314Y-123228649D01*
X168992672Y-123212015D01*
X166766819Y-120986162D01*
X166733334Y-120924839D01*
X166730500Y-120898481D01*
X166730500Y-119837666D01*
X166750185Y-119770627D01*
X166802989Y-119724872D01*
X166872147Y-119714928D01*
X166935703Y-119743953D01*
X166972206Y-119798663D01*
X166980640Y-119824117D01*
X166980643Y-119824124D01*
X167072684Y-119973345D01*
X167196654Y-120097315D01*
X167345875Y-120189356D01*
X167345880Y-120189358D01*
X167512302Y-120244505D01*
X167512309Y-120244506D01*
X167615019Y-120254999D01*
X167889999Y-120254999D01*
X168390000Y-120254999D01*
X168664972Y-120254999D01*
X168664986Y-120254998D01*
X168767697Y-120244505D01*
X168934119Y-120189358D01*
X168934124Y-120189356D01*
X169083345Y-120097315D01*
X169207315Y-119973345D01*
X169299356Y-119824124D01*
X169299358Y-119824119D01*
X169354505Y-119657697D01*
X169354506Y-119657690D01*
X169364999Y-119554986D01*
X169365000Y-119554973D01*
X169365000Y-119417500D01*
X168390000Y-119417500D01*
X168390000Y-120254999D01*
X167889999Y-120254999D01*
X167890000Y-120254998D01*
X167890000Y-119041500D01*
X167909685Y-118974461D01*
X167962489Y-118928706D01*
X168014000Y-118917500D01*
X169364999Y-118917500D01*
X169364999Y-118780028D01*
X169364998Y-118780013D01*
X169354505Y-118677302D01*
X169299358Y-118510880D01*
X169299356Y-118510875D01*
X169207315Y-118361654D01*
X169150342Y-118304681D01*
X169116857Y-118243358D01*
X169121841Y-118173666D01*
X169163713Y-118117733D01*
X169229177Y-118093316D01*
X169238023Y-118093000D01*
X169476718Y-118093000D01*
X169543757Y-118112685D01*
X169564399Y-118129319D01*
X170873111Y-119438031D01*
X170906596Y-119499354D01*
X170908958Y-119514902D01*
X170914364Y-119576688D01*
X170914366Y-119576697D01*
X170973258Y-119796488D01*
X170973261Y-119796497D01*
X171069431Y-120002732D01*
X171069432Y-120002734D01*
X171199954Y-120189141D01*
X171360858Y-120350045D01*
X171360861Y-120350047D01*
X171547266Y-120480568D01*
X171753504Y-120576739D01*
X171973308Y-120635635D01*
X172135230Y-120649801D01*
X172199998Y-120655468D01*
X172200000Y-120655468D01*
X172200002Y-120655468D01*
X172256673Y-120650509D01*
X172426692Y-120635635D01*
X172646496Y-120576739D01*
X172852734Y-120480568D01*
X173039139Y-120350047D01*
X173200047Y-120189139D01*
X173330568Y-120002734D01*
X173426739Y-119796496D01*
X173485635Y-119576692D01*
X173505468Y-119350000D01*
X173485635Y-119123308D01*
X173429869Y-118915185D01*
X173426741Y-118903511D01*
X173426738Y-118903502D01*
X173411437Y-118870689D01*
X173330568Y-118697266D01*
X173200047Y-118510861D01*
X173200045Y-118510858D01*
X173039141Y-118349954D01*
X172852734Y-118219432D01*
X172852728Y-118219429D01*
X172825038Y-118206517D01*
X172794724Y-118192381D01*
X172742285Y-118146210D01*
X172723133Y-118079017D01*
X172743348Y-118012135D01*
X172794725Y-117967618D01*
X172852734Y-117940568D01*
X173039139Y-117810047D01*
X173200047Y-117649139D01*
X173330568Y-117462734D01*
X173426739Y-117256496D01*
X173485635Y-117036692D01*
X173503803Y-116829035D01*
X173505468Y-116810001D01*
X173505468Y-116809998D01*
X173495275Y-116693493D01*
X173485635Y-116583308D01*
X173426739Y-116363504D01*
X173330568Y-116157266D01*
X173200047Y-115970861D01*
X173200045Y-115970858D01*
X173039141Y-115809954D01*
X172852734Y-115679432D01*
X172852728Y-115679429D01*
X172825038Y-115666517D01*
X172794724Y-115652381D01*
X172742285Y-115606210D01*
X172723133Y-115539017D01*
X172743348Y-115472135D01*
X172794725Y-115427618D01*
X172852734Y-115400568D01*
X173039139Y-115270047D01*
X173200047Y-115109139D01*
X173330568Y-114922734D01*
X173426739Y-114716496D01*
X173485635Y-114496692D01*
X173503803Y-114289035D01*
X173505468Y-114270001D01*
X173505468Y-114269998D01*
X173485635Y-114043313D01*
X173485635Y-114043308D01*
X173426739Y-113823504D01*
X173330568Y-113617266D01*
X173200047Y-113430861D01*
X173200045Y-113430858D01*
X173039141Y-113269954D01*
X172852734Y-113139432D01*
X172852732Y-113139431D01*
X172841275Y-113134088D01*
X172794132Y-113112105D01*
X172741694Y-113065934D01*
X172722542Y-112998740D01*
X172742758Y-112931859D01*
X172794134Y-112887341D01*
X172852484Y-112860132D01*
X173038820Y-112729657D01*
X173199657Y-112568820D01*
X173330134Y-112382482D01*
X173426265Y-112176326D01*
X173426269Y-112176317D01*
X173478872Y-111980000D01*
X172515686Y-111980000D01*
X172520080Y-111975606D01*
X172572741Y-111884394D01*
X172600000Y-111782661D01*
X172600000Y-111677339D01*
X172572741Y-111575606D01*
X172520080Y-111484394D01*
X172515686Y-111480000D01*
X173478872Y-111480000D01*
X173478872Y-111479999D01*
X173426269Y-111283682D01*
X173426265Y-111283673D01*
X173330134Y-111077517D01*
X173199657Y-110891179D01*
X173038820Y-110730342D01*
X172852481Y-110599865D01*
X172852479Y-110599864D01*
X172793543Y-110572382D01*
X172741103Y-110526210D01*
X172721951Y-110459017D01*
X172742166Y-110392136D01*
X172793543Y-110347618D01*
X172852479Y-110320135D01*
X172852481Y-110320134D01*
X173038820Y-110189657D01*
X173199657Y-110028820D01*
X173330134Y-109842482D01*
X173426265Y-109636326D01*
X173426269Y-109636317D01*
X173478872Y-109440000D01*
X172515686Y-109440000D01*
X172520080Y-109435606D01*
X172572741Y-109344394D01*
X172600000Y-109242661D01*
X172600000Y-109137339D01*
X172572741Y-109035606D01*
X172520080Y-108944394D01*
X172515686Y-108940000D01*
X173478872Y-108940000D01*
X173478872Y-108939999D01*
X173426269Y-108743682D01*
X173426265Y-108743673D01*
X173330134Y-108537517D01*
X173199657Y-108351179D01*
X173038820Y-108190342D01*
X172852482Y-108059865D01*
X172794133Y-108032657D01*
X172741694Y-107986484D01*
X172722542Y-107919291D01*
X172742758Y-107852410D01*
X172794129Y-107807895D01*
X172852734Y-107780568D01*
X173039139Y-107650047D01*
X173200047Y-107489139D01*
X173330568Y-107302734D01*
X173426739Y-107096496D01*
X173485635Y-106876692D01*
X173505468Y-106650000D01*
X173485635Y-106423308D01*
X173426739Y-106203504D01*
X173330568Y-105997266D01*
X173200047Y-105810861D01*
X173200045Y-105810858D01*
X173039141Y-105649954D01*
X172852734Y-105519432D01*
X172852728Y-105519429D01*
X172794725Y-105492382D01*
X172742285Y-105446210D01*
X172723133Y-105379017D01*
X172743348Y-105312135D01*
X172794725Y-105267618D01*
X172852734Y-105240568D01*
X173039139Y-105110047D01*
X173200047Y-104949139D01*
X173330568Y-104762734D01*
X173426739Y-104556496D01*
X173485635Y-104336692D01*
X173505468Y-104110000D01*
X173485635Y-103883308D01*
X173426739Y-103663504D01*
X173330568Y-103457266D01*
X173200047Y-103270861D01*
X173200045Y-103270858D01*
X173039143Y-103109956D01*
X173033670Y-103106124D01*
X173014535Y-103092725D01*
X172970912Y-103038149D01*
X172963719Y-102968650D01*
X172995241Y-102906296D01*
X173055471Y-102870882D01*
X173072404Y-102867861D01*
X173107483Y-102864091D01*
X173242331Y-102813796D01*
X173357546Y-102727546D01*
X173443796Y-102612331D01*
X173494091Y-102477483D01*
X173500500Y-102417873D01*
X173500499Y-100722128D01*
X173494091Y-100662517D01*
X173467418Y-100591004D01*
X173443797Y-100527671D01*
X173443793Y-100527664D01*
X173357547Y-100412455D01*
X173357544Y-100412452D01*
X173242335Y-100326206D01*
X173242328Y-100326202D01*
X173107482Y-100275908D01*
X173107483Y-100275908D01*
X173047883Y-100269501D01*
X173047881Y-100269500D01*
X173047873Y-100269500D01*
X173047864Y-100269500D01*
X171352129Y-100269500D01*
X171352123Y-100269501D01*
X171292516Y-100275908D01*
X171157671Y-100326202D01*
X171157664Y-100326206D01*
X171042455Y-100412452D01*
X171042452Y-100412455D01*
X170956206Y-100527664D01*
X170956202Y-100527671D01*
X170905908Y-100662517D01*
X170899777Y-100719551D01*
X170899501Y-100722123D01*
X170899500Y-100722135D01*
X170899500Y-101828480D01*
X170879815Y-101895519D01*
X170863181Y-101916161D01*
X170676162Y-102103181D01*
X170614839Y-102136666D01*
X170588481Y-102139500D01*
X168624499Y-102139500D01*
X168557460Y-102119815D01*
X168511705Y-102067011D01*
X168500499Y-102015500D01*
X168500499Y-101942129D01*
X168500498Y-101942123D01*
X168500497Y-101942116D01*
X168494091Y-101882517D01*
X168493093Y-101879842D01*
X168443797Y-101747671D01*
X168443793Y-101747664D01*
X168357547Y-101632455D01*
X168357544Y-101632452D01*
X168242335Y-101546206D01*
X168242328Y-101546202D01*
X168107482Y-101495908D01*
X168107483Y-101495908D01*
X168047883Y-101489501D01*
X168047881Y-101489500D01*
X168047873Y-101489500D01*
X168047864Y-101489500D01*
X166252129Y-101489500D01*
X166252123Y-101489501D01*
X166192516Y-101495908D01*
X166057671Y-101546202D01*
X166057664Y-101546206D01*
X165942455Y-101632452D01*
X165942452Y-101632455D01*
X165856206Y-101747664D01*
X165856202Y-101747671D01*
X165805908Y-101882517D01*
X165799501Y-101942116D01*
X165799501Y-101942123D01*
X165799500Y-101942135D01*
X165799500Y-103737870D01*
X165799501Y-103737876D01*
X165805908Y-103797483D01*
X165856202Y-103932328D01*
X165856206Y-103932335D01*
X165942452Y-104047544D01*
X165942455Y-104047547D01*
X166057664Y-104133793D01*
X166057671Y-104133797D01*
X166189081Y-104182810D01*
X166245015Y-104224681D01*
X166269432Y-104290145D01*
X166254580Y-104358418D01*
X166233430Y-104386673D01*
X166111503Y-104508600D01*
X165975965Y-104702169D01*
X165975964Y-104702171D01*
X165876098Y-104916335D01*
X165876094Y-104916344D01*
X165814938Y-105144586D01*
X165814936Y-105144596D01*
X165794341Y-105379999D01*
X165794341Y-105380000D01*
X165814936Y-105615403D01*
X165814938Y-105615413D01*
X165876094Y-105843655D01*
X165876096Y-105843659D01*
X165876097Y-105843663D01*
X165947724Y-105997267D01*
X165975965Y-106057830D01*
X165975967Y-106057834D01*
X166111501Y-106251395D01*
X166111506Y-106251402D01*
X166278597Y-106418493D01*
X166278603Y-106418498D01*
X166464158Y-106548425D01*
X166507783Y-106603002D01*
X166514977Y-106672500D01*
X166483454Y-106734855D01*
X166464158Y-106751575D01*
X166278597Y-106881505D01*
X166111505Y-107048597D01*
X165975965Y-107242169D01*
X165975964Y-107242171D01*
X165876098Y-107456335D01*
X165876094Y-107456344D01*
X165814938Y-107684586D01*
X165814936Y-107684596D01*
X165794341Y-107919999D01*
X165794341Y-107920000D01*
X165814936Y-108155403D01*
X165814938Y-108155413D01*
X165876094Y-108383655D01*
X165876096Y-108383659D01*
X165876097Y-108383663D01*
X165947841Y-108537517D01*
X165975965Y-108597830D01*
X165975967Y-108597834D01*
X166111501Y-108791395D01*
X166111506Y-108791402D01*
X166278597Y-108958493D01*
X166278603Y-108958498D01*
X166464158Y-109088425D01*
X166507783Y-109143002D01*
X166514977Y-109212500D01*
X166483454Y-109274855D01*
X166464158Y-109291575D01*
X166278597Y-109421505D01*
X166111505Y-109588597D01*
X165975965Y-109782169D01*
X165975964Y-109782171D01*
X165876098Y-109996335D01*
X165876094Y-109996344D01*
X165814938Y-110224586D01*
X165814936Y-110224596D01*
X165794341Y-110459999D01*
X165794341Y-110460000D01*
X165814936Y-110695403D01*
X165814938Y-110695413D01*
X165876094Y-110923655D01*
X165876096Y-110923659D01*
X165876097Y-110923663D01*
X165929719Y-111038655D01*
X165975965Y-111137830D01*
X165975967Y-111137834D01*
X166111501Y-111331395D01*
X166111506Y-111331402D01*
X166278597Y-111498493D01*
X166278603Y-111498498D01*
X166464158Y-111628425D01*
X166507783Y-111683002D01*
X166514977Y-111752500D01*
X166483454Y-111814855D01*
X166464158Y-111831575D01*
X166278597Y-111961505D01*
X166111505Y-112128597D01*
X165975965Y-112322169D01*
X165975964Y-112322171D01*
X165876098Y-112536335D01*
X165876094Y-112536344D01*
X165814938Y-112764586D01*
X165814936Y-112764596D01*
X165794341Y-112999999D01*
X165794341Y-113000000D01*
X165814936Y-113235403D01*
X165814938Y-113235413D01*
X165876094Y-113463655D01*
X165876096Y-113463659D01*
X165876097Y-113463663D01*
X165947724Y-113617267D01*
X165975965Y-113677830D01*
X165975967Y-113677834D01*
X166056489Y-113792830D01*
X166111505Y-113871401D01*
X166278599Y-114038495D01*
X166285473Y-114043308D01*
X166472165Y-114174032D01*
X166472167Y-114174033D01*
X166472170Y-114174035D01*
X166686337Y-114273903D01*
X166914592Y-114335063D01*
X167102918Y-114351539D01*
X167149999Y-114355659D01*
X167150000Y-114355659D01*
X167150001Y-114355659D01*
X167189234Y-114352226D01*
X167385408Y-114335063D01*
X167613663Y-114273903D01*
X167827830Y-114174035D01*
X168021401Y-114038495D01*
X168141941Y-113917954D01*
X168203260Y-113884472D01*
X168272952Y-113889456D01*
X168317300Y-113917957D01*
X170314108Y-115914765D01*
X170347593Y-115976088D01*
X170342609Y-116045780D01*
X170300737Y-116101713D01*
X170235273Y-116126130D01*
X170202237Y-116124064D01*
X170189825Y-116121595D01*
X170089011Y-116101542D01*
X170065026Y-116096771D01*
X170041042Y-116092000D01*
X170041041Y-116092000D01*
X169004866Y-116092000D01*
X168939768Y-116073538D01*
X168934338Y-116070188D01*
X168934335Y-116070186D01*
X168934334Y-116070186D01*
X168767797Y-116015001D01*
X168767795Y-116015000D01*
X168665010Y-116004500D01*
X167614998Y-116004500D01*
X167614980Y-116004501D01*
X167512203Y-116015000D01*
X167512200Y-116015001D01*
X167345668Y-116070185D01*
X167345663Y-116070187D01*
X167196342Y-116162289D01*
X167072289Y-116286342D01*
X166980187Y-116435663D01*
X166980186Y-116435666D01*
X166925001Y-116602203D01*
X166925001Y-116602204D01*
X166925000Y-116602204D01*
X166914500Y-116704983D01*
X166914500Y-117275980D01*
X166894815Y-117343019D01*
X166878181Y-117363661D01*
X165485888Y-118755953D01*
X165485887Y-118755954D01*
X165469812Y-118780013D01*
X165417601Y-118858152D01*
X165363991Y-118902957D01*
X165294666Y-118911664D01*
X165231638Y-118881510D01*
X165194918Y-118822067D01*
X165190500Y-118789261D01*
X165190500Y-96349999D01*
X173854364Y-96349999D01*
X173854364Y-96350000D01*
X174751988Y-96350000D01*
X174719075Y-96407007D01*
X174685000Y-96534174D01*
X174685000Y-96665826D01*
X174719075Y-96792993D01*
X174751988Y-96850000D01*
X173854364Y-96850000D01*
X173911567Y-97063486D01*
X173911570Y-97063492D01*
X174011399Y-97277578D01*
X174146894Y-97471082D01*
X174313917Y-97638105D01*
X174507421Y-97773600D01*
X174721507Y-97873429D01*
X174721516Y-97873433D01*
X174935000Y-97930634D01*
X174935000Y-97033012D01*
X174992007Y-97065925D01*
X175119174Y-97100000D01*
X175250826Y-97100000D01*
X175377993Y-97065925D01*
X175435000Y-97033012D01*
X175435000Y-97930633D01*
X175648483Y-97873433D01*
X175648492Y-97873429D01*
X175862578Y-97773600D01*
X176056078Y-97638108D01*
X176178133Y-97516053D01*
X176239456Y-97482568D01*
X176309148Y-97487552D01*
X176365082Y-97529423D01*
X176381997Y-97560401D01*
X176431202Y-97692328D01*
X176431206Y-97692335D01*
X176517452Y-97807544D01*
X176517455Y-97807547D01*
X176632664Y-97893793D01*
X176632671Y-97893797D01*
X176767517Y-97944091D01*
X176767516Y-97944091D01*
X176774444Y-97944835D01*
X176827127Y-97950500D01*
X178622872Y-97950499D01*
X178682483Y-97944091D01*
X178817331Y-97893796D01*
X178932546Y-97807546D01*
X179018796Y-97692331D01*
X179069091Y-97557483D01*
X179075500Y-97497873D01*
X179075500Y-97424500D01*
X179095185Y-97357461D01*
X179147989Y-97311706D01*
X179199500Y-97300500D01*
X179718481Y-97300500D01*
X179785520Y-97320185D01*
X179806162Y-97336819D01*
X183149662Y-100680319D01*
X183183147Y-100741642D01*
X183178163Y-100811334D01*
X183136291Y-100867267D01*
X183070827Y-100891684D01*
X183061981Y-100892000D01*
X180997427Y-100892000D01*
X180930388Y-100872315D01*
X180895852Y-100839123D01*
X180874824Y-100809092D01*
X180820047Y-100730861D01*
X180820045Y-100730858D01*
X180659141Y-100569954D01*
X180472734Y-100439432D01*
X180472732Y-100439431D01*
X180266497Y-100343261D01*
X180266488Y-100343258D01*
X180046697Y-100284366D01*
X180046693Y-100284365D01*
X180046692Y-100284365D01*
X180046691Y-100284364D01*
X180046686Y-100284364D01*
X179820002Y-100264532D01*
X179819998Y-100264532D01*
X179593313Y-100284364D01*
X179593302Y-100284366D01*
X179373511Y-100343258D01*
X179373502Y-100343261D01*
X179167267Y-100439431D01*
X179167265Y-100439432D01*
X178980858Y-100569954D01*
X178819954Y-100730858D01*
X178689432Y-100917265D01*
X178689431Y-100917267D01*
X178593261Y-101123502D01*
X178593258Y-101123511D01*
X178534366Y-101343302D01*
X178534364Y-101343313D01*
X178514532Y-101569998D01*
X178514532Y-101570001D01*
X178534364Y-101796686D01*
X178534366Y-101796697D01*
X178593258Y-102016488D01*
X178593261Y-102016497D01*
X178689431Y-102222732D01*
X178689432Y-102222734D01*
X178819954Y-102409141D01*
X178980858Y-102570045D01*
X178980861Y-102570047D01*
X179167266Y-102700568D01*
X179225275Y-102727618D01*
X179277714Y-102773791D01*
X179296866Y-102840984D01*
X179276650Y-102907865D01*
X179225275Y-102952382D01*
X179167267Y-102979431D01*
X179167265Y-102979432D01*
X178980858Y-103109954D01*
X178819954Y-103270858D01*
X178689432Y-103457265D01*
X178689431Y-103457267D01*
X178593261Y-103663502D01*
X178593258Y-103663511D01*
X178534366Y-103883302D01*
X178534364Y-103883313D01*
X178514532Y-104109998D01*
X178514532Y-104110001D01*
X178534364Y-104336686D01*
X178534366Y-104336697D01*
X178593258Y-104556488D01*
X178593261Y-104556497D01*
X178689431Y-104762732D01*
X178689432Y-104762734D01*
X178819954Y-104949141D01*
X178980858Y-105110045D01*
X178980861Y-105110047D01*
X179167266Y-105240568D01*
X179225275Y-105267618D01*
X179277714Y-105313791D01*
X179296866Y-105380984D01*
X179276650Y-105447865D01*
X179225275Y-105492382D01*
X179167267Y-105519431D01*
X179167265Y-105519432D01*
X178980858Y-105649954D01*
X178819954Y-105810858D01*
X178689432Y-105997265D01*
X178689431Y-105997267D01*
X178593261Y-106203502D01*
X178593258Y-106203511D01*
X178534366Y-106423302D01*
X178534364Y-106423313D01*
X178514532Y-106649998D01*
X178514532Y-106650001D01*
X178534364Y-106876686D01*
X178534366Y-106876697D01*
X178593258Y-107096488D01*
X178593261Y-107096497D01*
X178689431Y-107302732D01*
X178689432Y-107302734D01*
X178819954Y-107489141D01*
X178980858Y-107650045D01*
X178980861Y-107650047D01*
X179167266Y-107780568D01*
X179225865Y-107807893D01*
X179278305Y-107854065D01*
X179297457Y-107921258D01*
X179277242Y-107988139D01*
X179225867Y-108032657D01*
X179167515Y-108059867D01*
X178981179Y-108190342D01*
X178820342Y-108351179D01*
X178689865Y-108537517D01*
X178593734Y-108743673D01*
X178593730Y-108743682D01*
X178541127Y-108939999D01*
X178541128Y-108940000D01*
X179504314Y-108940000D01*
X179499920Y-108944394D01*
X179447259Y-109035606D01*
X179420000Y-109137339D01*
X179420000Y-109242661D01*
X179447259Y-109344394D01*
X179499920Y-109435606D01*
X179504314Y-109440000D01*
X178541128Y-109440000D01*
X178593730Y-109636317D01*
X178593734Y-109636326D01*
X178689865Y-109842482D01*
X178820342Y-110028820D01*
X178981179Y-110189657D01*
X179167517Y-110320134D01*
X179226457Y-110347618D01*
X179278896Y-110393790D01*
X179298048Y-110460984D01*
X179277832Y-110527865D01*
X179226457Y-110572382D01*
X179167517Y-110599865D01*
X178981179Y-110730342D01*
X178820342Y-110891179D01*
X178689865Y-111077517D01*
X178593734Y-111283673D01*
X178593730Y-111283682D01*
X178541127Y-111479999D01*
X178541128Y-111480000D01*
X179504314Y-111480000D01*
X179499920Y-111484394D01*
X179447259Y-111575606D01*
X179420000Y-111677339D01*
X179420000Y-111782661D01*
X179447259Y-111884394D01*
X179499920Y-111975606D01*
X179504314Y-111980000D01*
X178541128Y-111980000D01*
X178593730Y-112176317D01*
X178593734Y-112176326D01*
X178689865Y-112382482D01*
X178820342Y-112568820D01*
X178981179Y-112729657D01*
X179167518Y-112860134D01*
X179167520Y-112860135D01*
X179225865Y-112887342D01*
X179278305Y-112933514D01*
X179297457Y-113000707D01*
X179277242Y-113067589D01*
X179225867Y-113112105D01*
X179167268Y-113139431D01*
X179167264Y-113139433D01*
X178980858Y-113269954D01*
X178819954Y-113430858D01*
X178689432Y-113617265D01*
X178689431Y-113617267D01*
X178593261Y-113823502D01*
X178593258Y-113823511D01*
X178534366Y-114043302D01*
X178534364Y-114043313D01*
X178514532Y-114269998D01*
X178514532Y-114270001D01*
X178534364Y-114496686D01*
X178534366Y-114496697D01*
X178593258Y-114716488D01*
X178593261Y-114716497D01*
X178689431Y-114922732D01*
X178689432Y-114922734D01*
X178819954Y-115109141D01*
X178980858Y-115270045D01*
X178980861Y-115270047D01*
X179167266Y-115400568D01*
X179225275Y-115427618D01*
X179277714Y-115473791D01*
X179296866Y-115540984D01*
X179276650Y-115607865D01*
X179225275Y-115652381D01*
X179208272Y-115660310D01*
X179167267Y-115679431D01*
X179167265Y-115679432D01*
X178980858Y-115809954D01*
X178819954Y-115970858D01*
X178689432Y-116157265D01*
X178689431Y-116157267D01*
X178593261Y-116363502D01*
X178593258Y-116363511D01*
X178534366Y-116583302D01*
X178534364Y-116583313D01*
X178514532Y-116809998D01*
X178514532Y-116810001D01*
X178534364Y-117036686D01*
X178534366Y-117036697D01*
X178593258Y-117256488D01*
X178593261Y-117256497D01*
X178689431Y-117462732D01*
X178689432Y-117462734D01*
X178819954Y-117649141D01*
X178980858Y-117810045D01*
X178980861Y-117810047D01*
X179167266Y-117940568D01*
X179225275Y-117967618D01*
X179277714Y-118013791D01*
X179296866Y-118080984D01*
X179276650Y-118147865D01*
X179225275Y-118192381D01*
X179208272Y-118200310D01*
X179167267Y-118219431D01*
X179167265Y-118219432D01*
X178980858Y-118349954D01*
X178819954Y-118510858D01*
X178689432Y-118697265D01*
X178689431Y-118697267D01*
X178593261Y-118903502D01*
X178593258Y-118903511D01*
X178534366Y-119123302D01*
X178534364Y-119123313D01*
X178514532Y-119349998D01*
X178514532Y-119350001D01*
X178534364Y-119576686D01*
X178534366Y-119576697D01*
X178593258Y-119796488D01*
X178593261Y-119796497D01*
X178689431Y-120002732D01*
X178689432Y-120002734D01*
X178819954Y-120189141D01*
X178980858Y-120350045D01*
X178980861Y-120350047D01*
X179167266Y-120480568D01*
X179373504Y-120576739D01*
X179593308Y-120635635D01*
X179755230Y-120649801D01*
X179819998Y-120655468D01*
X179820000Y-120655468D01*
X179820002Y-120655468D01*
X179876673Y-120650509D01*
X180046692Y-120635635D01*
X180266496Y-120576739D01*
X180472734Y-120480568D01*
X180659139Y-120350047D01*
X180820047Y-120189139D01*
X180950568Y-120002734D01*
X181046739Y-119796496D01*
X181105635Y-119576692D01*
X181125468Y-119350000D01*
X181105635Y-119123308D01*
X181105633Y-119123303D01*
X181105180Y-119118117D01*
X181118946Y-119049617D01*
X181141024Y-119019631D01*
X181228839Y-118931818D01*
X181290162Y-118898333D01*
X181316519Y-118895500D01*
X183597289Y-118895500D01*
X183664328Y-118915185D01*
X183698864Y-118948377D01*
X183781505Y-119066402D01*
X183948597Y-119233493D01*
X183948599Y-119233495D01*
X184045384Y-119301265D01*
X184142165Y-119369032D01*
X184142167Y-119369033D01*
X184142170Y-119369035D01*
X184356337Y-119468903D01*
X184356343Y-119468904D01*
X184356344Y-119468905D01*
X184411285Y-119483626D01*
X184584592Y-119530063D01*
X184772918Y-119546539D01*
X184819999Y-119550659D01*
X184820000Y-119550659D01*
X184820001Y-119550659D01*
X184859234Y-119547226D01*
X185055408Y-119530063D01*
X185283663Y-119468903D01*
X185497830Y-119369035D01*
X185691401Y-119233495D01*
X185858495Y-119066401D01*
X185994035Y-118872830D01*
X186093903Y-118658663D01*
X186155063Y-118430408D01*
X186175659Y-118195000D01*
X186173792Y-118173666D01*
X186171390Y-118146210D01*
X186155063Y-117959592D01*
X186093903Y-117731337D01*
X185994035Y-117517171D01*
X185971683Y-117485248D01*
X185858494Y-117323597D01*
X185691402Y-117156506D01*
X185691396Y-117156501D01*
X185505842Y-117026575D01*
X185462217Y-116971998D01*
X185455023Y-116902500D01*
X185486546Y-116840145D01*
X185505842Y-116823425D01*
X185528026Y-116807891D01*
X185691401Y-116693495D01*
X185858495Y-116526401D01*
X185994035Y-116332830D01*
X186093903Y-116118663D01*
X186155063Y-115890408D01*
X186175659Y-115655000D01*
X186155063Y-115419592D01*
X186093903Y-115191337D01*
X185994035Y-114977171D01*
X185971683Y-114945248D01*
X185858494Y-114783597D01*
X185691402Y-114616506D01*
X185691396Y-114616501D01*
X185505842Y-114486575D01*
X185462217Y-114431998D01*
X185455023Y-114362500D01*
X185486546Y-114300145D01*
X185505842Y-114283425D01*
X185528026Y-114267891D01*
X185691401Y-114153495D01*
X185858495Y-113986401D01*
X185994035Y-113792830D01*
X186093903Y-113578663D01*
X186155063Y-113350408D01*
X186175659Y-113115000D01*
X186155063Y-112879592D01*
X186093903Y-112651337D01*
X185994035Y-112437171D01*
X185913512Y-112322171D01*
X185858494Y-112243597D01*
X185691402Y-112076506D01*
X185691396Y-112076501D01*
X185505842Y-111946575D01*
X185462217Y-111891998D01*
X185455023Y-111822500D01*
X185486546Y-111760145D01*
X185505842Y-111743425D01*
X185600222Y-111677339D01*
X185691401Y-111613495D01*
X185858495Y-111446401D01*
X185994035Y-111252830D01*
X186093903Y-111038663D01*
X186155063Y-110810408D01*
X186175659Y-110575000D01*
X186155063Y-110339592D01*
X186093903Y-110111337D01*
X185994035Y-109897171D01*
X185913511Y-109782171D01*
X185858496Y-109703600D01*
X185837755Y-109682859D01*
X185736567Y-109581671D01*
X185703084Y-109520351D01*
X185708068Y-109450659D01*
X185749939Y-109394725D01*
X185780915Y-109377810D01*
X185912331Y-109328796D01*
X186027546Y-109242546D01*
X186113796Y-109127331D01*
X186164091Y-108992483D01*
X186170500Y-108932873D01*
X186170499Y-107137128D01*
X186164091Y-107077517D01*
X186153305Y-107048599D01*
X186113797Y-106942671D01*
X186113793Y-106942664D01*
X186027547Y-106827455D01*
X186027544Y-106827452D01*
X185912335Y-106741206D01*
X185912328Y-106741202D01*
X185777482Y-106690908D01*
X185777483Y-106690908D01*
X185717883Y-106684501D01*
X185717881Y-106684500D01*
X185717873Y-106684500D01*
X185717864Y-106684500D01*
X183922129Y-106684500D01*
X183922123Y-106684501D01*
X183862516Y-106690908D01*
X183727671Y-106741202D01*
X183727664Y-106741206D01*
X183650233Y-106799171D01*
X183584769Y-106823588D01*
X183516496Y-106808736D01*
X183488242Y-106787585D01*
X181141027Y-104440370D01*
X181107542Y-104379047D01*
X181105180Y-104341881D01*
X181105633Y-104336697D01*
X181105635Y-104336692D01*
X181106659Y-104324986D01*
X182895001Y-104324986D01*
X182905494Y-104427697D01*
X182960641Y-104594119D01*
X182960643Y-104594124D01*
X183052684Y-104743345D01*
X183176654Y-104867315D01*
X183325875Y-104959356D01*
X183325880Y-104959358D01*
X183492302Y-105014505D01*
X183492309Y-105014506D01*
X183595019Y-105024999D01*
X183869999Y-105024999D01*
X184370000Y-105024999D01*
X184644972Y-105024999D01*
X184644986Y-105024998D01*
X184747697Y-105014505D01*
X184914119Y-104959358D01*
X184914124Y-104959356D01*
X185063345Y-104867315D01*
X185187315Y-104743345D01*
X185279356Y-104594124D01*
X185279358Y-104594119D01*
X185334505Y-104427697D01*
X185334506Y-104427690D01*
X185344999Y-104324986D01*
X185345000Y-104324973D01*
X185345000Y-104187500D01*
X184370000Y-104187500D01*
X184370000Y-105024999D01*
X183869999Y-105024999D01*
X183870000Y-105024998D01*
X183870000Y-104187500D01*
X182895001Y-104187500D01*
X182895001Y-104324986D01*
X181106659Y-104324986D01*
X181125468Y-104110000D01*
X181105635Y-103883308D01*
X181046739Y-103663504D01*
X180950568Y-103457266D01*
X180820047Y-103270861D01*
X180820045Y-103270858D01*
X180655311Y-103106124D01*
X180656725Y-103104709D01*
X180622867Y-103053828D01*
X180621753Y-102983967D01*
X180658585Y-102924594D01*
X180721669Y-102894559D01*
X180741272Y-102893000D01*
X182991977Y-102893000D01*
X183059016Y-102912685D01*
X183104771Y-102965489D01*
X183114715Y-103034647D01*
X183085690Y-103098203D01*
X183079658Y-103104681D01*
X183052684Y-103131654D01*
X182960643Y-103280875D01*
X182960641Y-103280880D01*
X182905494Y-103447302D01*
X182905493Y-103447309D01*
X182895000Y-103550013D01*
X182895000Y-103687500D01*
X185344999Y-103687500D01*
X185344999Y-103550028D01*
X185344998Y-103550013D01*
X185334505Y-103447302D01*
X185279358Y-103280880D01*
X185279356Y-103280875D01*
X185187315Y-103131654D01*
X185063344Y-103007683D01*
X185063341Y-103007681D01*
X185060339Y-103005829D01*
X185058713Y-103004021D01*
X185057677Y-103003202D01*
X185057817Y-103003024D01*
X185013617Y-102953880D01*
X185002397Y-102884917D01*
X185030243Y-102820836D01*
X185060344Y-102794754D01*
X185063656Y-102792712D01*
X185187712Y-102668656D01*
X185279814Y-102519334D01*
X185334999Y-102352797D01*
X185345500Y-102250009D01*
X185345499Y-101474992D01*
X185334999Y-101372203D01*
X185279814Y-101205666D01*
X185187712Y-101056344D01*
X185063656Y-100932288D01*
X184914334Y-100840186D01*
X184914333Y-100840185D01*
X184914332Y-100840185D01*
X184905493Y-100837256D01*
X184848049Y-100797482D01*
X184821228Y-100732965D01*
X184820500Y-100719551D01*
X184820500Y-100591004D01*
X184793581Y-100455677D01*
X184793580Y-100455676D01*
X184793580Y-100455672D01*
X184747017Y-100343258D01*
X184740778Y-100328195D01*
X184740776Y-100328191D01*
X184740775Y-100328189D01*
X184701561Y-100269501D01*
X184664114Y-100213457D01*
X184664112Y-100213454D01*
X180506545Y-96055887D01*
X180391807Y-95979222D01*
X180264332Y-95926421D01*
X180264322Y-95926418D01*
X180128996Y-95899500D01*
X180128994Y-95899500D01*
X180128993Y-95899500D01*
X179199499Y-95899500D01*
X179132460Y-95879815D01*
X179086705Y-95827011D01*
X179075499Y-95775500D01*
X179075499Y-95702129D01*
X179075498Y-95702123D01*
X179069091Y-95642516D01*
X179018797Y-95507671D01*
X179018793Y-95507664D01*
X178932547Y-95392455D01*
X178932544Y-95392452D01*
X178817335Y-95306206D01*
X178817328Y-95306202D01*
X178682482Y-95255908D01*
X178682483Y-95255908D01*
X178622883Y-95249501D01*
X178622881Y-95249500D01*
X178622873Y-95249500D01*
X178622864Y-95249500D01*
X176827129Y-95249500D01*
X176827123Y-95249501D01*
X176767516Y-95255908D01*
X176632671Y-95306202D01*
X176632664Y-95306206D01*
X176517455Y-95392452D01*
X176517452Y-95392455D01*
X176431206Y-95507664D01*
X176431202Y-95507671D01*
X176381997Y-95639598D01*
X176340126Y-95695532D01*
X176274661Y-95719949D01*
X176206388Y-95705097D01*
X176178134Y-95683946D01*
X176056082Y-95561894D01*
X175862578Y-95426399D01*
X175648492Y-95326570D01*
X175648486Y-95326567D01*
X175435000Y-95269364D01*
X175435000Y-96166988D01*
X175377993Y-96134075D01*
X175250826Y-96100000D01*
X175119174Y-96100000D01*
X174992007Y-96134075D01*
X174935000Y-96166988D01*
X174935000Y-95269364D01*
X174934999Y-95269364D01*
X174721513Y-95326567D01*
X174721507Y-95326570D01*
X174507422Y-95426399D01*
X174507420Y-95426400D01*
X174313926Y-95561886D01*
X174313920Y-95561891D01*
X174146891Y-95728920D01*
X174146886Y-95728926D01*
X174011400Y-95922420D01*
X174011399Y-95922422D01*
X173911570Y-96136507D01*
X173911567Y-96136513D01*
X173854364Y-96349999D01*
X165190500Y-96349999D01*
X165190500Y-94284500D01*
X165210185Y-94217461D01*
X165262989Y-94171706D01*
X165314500Y-94160500D01*
X187035500Y-94160500D01*
X187102539Y-94180185D01*
G37*
%TD.AperFunction*%
%TA.AperFunction,Conductor*%
G36*
X170911424Y-108940000D02*
G01*
X171884314Y-108940000D01*
X171879920Y-108944394D01*
X171827259Y-109035606D01*
X171800000Y-109137339D01*
X171800000Y-109242661D01*
X171827259Y-109344394D01*
X171879920Y-109435606D01*
X171884314Y-109440000D01*
X170921128Y-109440000D01*
X170973730Y-109636317D01*
X170973734Y-109636326D01*
X171069865Y-109842482D01*
X171200342Y-110028820D01*
X171361179Y-110189657D01*
X171547517Y-110320134D01*
X171606457Y-110347618D01*
X171658896Y-110393790D01*
X171678048Y-110460984D01*
X171657832Y-110527865D01*
X171606457Y-110572382D01*
X171547517Y-110599865D01*
X171361179Y-110730342D01*
X171200342Y-110891179D01*
X171069865Y-111077517D01*
X170973734Y-111283673D01*
X170973731Y-111283680D01*
X170956384Y-111348421D01*
X170920019Y-111408081D01*
X170857172Y-111438610D01*
X170787796Y-111430315D01*
X170748929Y-111404009D01*
X169174208Y-109829288D01*
X169174206Y-109829285D01*
X169174206Y-109829286D01*
X169167139Y-109822219D01*
X169167139Y-109822218D01*
X169027782Y-109682861D01*
X169027781Y-109682860D01*
X169027780Y-109682859D01*
X168863920Y-109573371D01*
X168863911Y-109573366D01*
X168791315Y-109543296D01*
X168735165Y-109520038D01*
X168681836Y-109497949D01*
X168681832Y-109497948D01*
X168681828Y-109497946D01*
X168585188Y-109478724D01*
X168488544Y-109459500D01*
X168488541Y-109459500D01*
X168110758Y-109459500D01*
X168043719Y-109439815D01*
X168023077Y-109423181D01*
X168021402Y-109421506D01*
X168021396Y-109421501D01*
X167835842Y-109291575D01*
X167792217Y-109236998D01*
X167785023Y-109167500D01*
X167816546Y-109105145D01*
X167835842Y-109088425D01*
X167911275Y-109035606D01*
X168021401Y-108958495D01*
X168023077Y-108956819D01*
X168023995Y-108956317D01*
X168025544Y-108955018D01*
X168025805Y-108955329D01*
X168084400Y-108923334D01*
X168110758Y-108920500D01*
X170845015Y-108920500D01*
X170911424Y-108940000D01*
G37*
%TD.AperFunction*%
%TA.AperFunction,Conductor*%
G36*
X172450000Y-111414314D02*
G01*
X172445606Y-111409920D01*
X172354394Y-111357259D01*
X172252661Y-111330000D01*
X172147339Y-111330000D01*
X172045606Y-111357259D01*
X171954394Y-111409920D01*
X171950000Y-111414314D01*
X171950000Y-109505686D01*
X171954394Y-109510080D01*
X172045606Y-109562741D01*
X172147339Y-109590000D01*
X172252661Y-109590000D01*
X172354394Y-109562741D01*
X172445606Y-109510080D01*
X172450000Y-109505686D01*
X172450000Y-111414314D01*
G37*
%TD.AperFunction*%
%TD*%
M02*
