M48
; DRILL file {KiCad 8.0.6} date 2025-10-28T14:06:19-0400
; FORMAT={-:-/ absolute / metric / decimal}
; #@! TF.CreationDate,2025-10-28T14:06:19-04:00
; #@! TF.GenerationSoftware,Kicad,Pcbnew,8.0.6
; #@! TF.FileFunction,MixedPlating,1,2
FMAT,2
METRIC
; #@! TA.AperFunction,Plated,PTH,ComponentDrill
T1C0.800
; #@! TA.AperFunction,Plated,PTH,ComponentDrill
T2C1.000
%
G90
G05
T1
X172.2Y-101.57
X172.2Y-104.11
X172.2Y-106.65
X172.2Y-109.19
X172.2Y-111.73
X172.2Y-114.27
X172.2Y-116.81
X172.2Y-119.35
X179.82Y-101.57
X179.82Y-104.11
X179.82Y-106.65
X179.82Y-109.19
X179.82Y-111.73
X179.82Y-114.27
X179.82Y-116.81
X179.82Y-119.35
T2
X167.15Y-102.84
X167.15Y-105.38
X167.15Y-107.92
X167.15Y-110.46
X167.15Y-113.0
X174.795Y-123.86
X175.185Y-96.6
X177.335Y-123.86
X177.725Y-96.6
X184.82Y-108.035
X184.82Y-110.575
X184.82Y-113.115
X184.82Y-115.655
X184.82Y-118.195
M30
